<svg xmlns="http://www.w3.org/2000/svg" viewBox="0 0 24 24" fill="currentColor" width="24" height="24">
  <path d="M3 3h18v18H3V3zm16.525 13.707c-.131-.821-.666-1.511-2.252-2.155-.552-.259-1.165-.438-1.349-.854-.068-.248-.078-.382-.034-.529.11-.403.602-.523.966-.421.24.068.464.201.602.462.58-.378.58-.378.988-.631-.151-.24-.251-.336-.371-.438-.412-.375-.978-.548-1.88-.531l-.463.054c-.446.104-.875.312-1.137.62-.738.861-.525 2.359.375 3.024.897.644 2.207.789 2.371 1.397.159.622-.233 1.002-1.071 1.002-.435 0-.73-.174-.999-.5l-.022-.02c-.378.201-.756.4-1.135.6.256.426.537.732.949.943.872.44 2.172.34 2.984-.291.64-.524.828-1.361.725-2.262zm-3.724-6.18c-.409-.016-.707.233-.95.619-.618.77-.618 1.987 0 2.757.243.386.541.635.95.619.392.034.69-.214.933-.619.618-.77.618-1.987 0-2.757-.243-.405-.541-.654-.933-.619z"/>
</svg> 