<svg width="16" height="16" viewBox="0 0 16 16" fill="none" xmlns="http://www.w3.org/2000/svg">
  <!-- Circular arrow for reset -->
  <path d="M8 1.5A6.5 6.5 0 0 1 14.5 8h-1A5.5 5.5 0 1 0 8 2.5V1L6 3l2 2V4A4.5 4.5 0 1 1 8 12.5 4.5 4.5 0 0 1 3.5 8h-1A5.5 5.5 0 0 0 8 13.5 6.5 6.5 0 0 0 14.5 8 6.5 6.5 0 0 0 8 1.5z" fill="currentColor" opacity="0.8"/>
  <!-- Install/download arrow in center -->
  <path d="M8 5v4m0 0L6.5 7.5M8 9l1.5-1.5" stroke="currentColor" stroke-width="1.2" stroke-linecap="round" stroke-linejoin="round"/>
  <path d="M6 10.5h4" stroke="currentColor" stroke-width="1.2" stroke-linecap="round"/>
</svg> 