<svg style="display:none" xmlns="http://www.w3.org/2000/svg">
    <defs>
        <!-- Arcade logo paths -->
        <g id="svg_arcade_logo_truncated">
            <path d="M28,20L12,20L12,28L0,28L0,0L28,0L28,20ZM24,4L4,4L4,24L8,24L8,16L24,16L24,4Z"/>
            <path d="M60,8L64,8L64,0L76,0L76,12L68,12L68,16L76,16L76,28L64,28L64,20L60,20L60,28L48,28L48,16L56,16L56,12L48,12L48,0L60,0L60,8ZM56,8L56,4L52,4L52,8L56,8ZM60,16L64,16L64,12L60,12L60,16ZM56,20L52,20L52,24L56,24L56,20ZM68,20L68,24L72,24L72,20L68,20ZM68,8L72,8L72,4L68,4L68,8Z"/>
            <path d="M124,16L140,16L140,28L112,28L112,0L124,0L124,16ZM120,18L120,4L116,4L116,24L136,24L136,20L120,20L120,18Z"/>
            <path d="M160,16L160,0L172,0L172,28L144,28L144,16L160,16ZM162,20L148,20L148,24L168,24L168,4L164,4L164,20L162,20Z"/>
            <path d="M204,28L192,28L192,20L188,20L188,28L176,28L176,0L204,0L204,28ZM200,4L180,4L180,24L184,24L184,16L196,16L196,24L200,24L200,4Z"/>
        </g>
    </defs>
</svg>
